<svg width="323" height="204" viewBox="0 0 323 204" fill="none" xmlns="http://www.w3.org/2000/svg">
<g filter="url(#filter0_dd)">
<path fill-rule="evenodd" clip-rule="evenodd" d="M30 31C30 28.2386 32.2386 26 35 26H288C290.761 26 293 28.2386 293 31V149C293 151.761 290.761 154 288 154H35C32.2386 154 30 151.761 30 149V31Z" fill="#03293D"/>
</g>
<g opacity="0.14">
<path d="M177.194 105.272C177.722 107.312 178.961 108.978 180.638 109.907C182.316 110.836 184.298 110.953 186.152 110.232C187.07 109.871 187.928 109.315 188.677 108.594C189.426 107.873 190.052 107.002 190.518 106.031C190.984 105.06 191.282 104.008 191.394 102.934C191.507 101.861 191.432 100.787 191.173 99.7752C190.915 98.7627 190.479 97.8312 189.89 97.034C189.3 96.2367 188.569 95.5894 187.738 95.1289C186.906 94.6684 185.991 94.4039 185.045 94.3504C184.098 94.2969 183.138 94.4555 182.221 94.8171C180.372 95.5531 178.807 97.0647 177.865 99.0228C176.924 100.981 176.683 103.227 177.194 105.272Z" fill="#23B3E8"/>
<path d="M111.331 93.338C111.874 95.3276 113.122 96.9582 114.804 97.8746C116.486 98.7909 118.466 98.9186 120.312 98.2299C122.152 97.5254 123.703 96.0643 124.628 94.1646C125.553 92.2649 125.777 90.0803 125.251 88.0863C124.711 86.0951 123.465 84.462 121.783 83.5431C120.101 82.6243 118.121 82.4943 116.274 83.1814C114.431 83.8852 112.876 85.3482 111.95 87.251C111.024 89.1538 110.802 91.3419 111.331 93.338Z" fill="#F15832"/>
<path d="M183.479 80.183L155.892 116.202C155.441 116.793 154.893 117.286 154.279 117.653C153.665 118.02 152.997 118.253 152.315 118.339C151.632 118.428 150.948 118.369 150.301 118.164C149.654 117.959 149.057 117.613 148.544 117.146L147.78 116.454C147.266 115.988 146.846 115.41 146.544 114.753C146.242 114.096 146.065 113.372 146.022 112.624C145.979 111.876 146.071 111.118 146.293 110.393C146.515 109.669 146.863 108.992 147.316 108.401L175.424 71.6932C176.199 70.6833 177.29 70.032 178.458 69.8822C179.626 69.7324 180.776 70.0965 181.653 70.8945L183.015 72.13C183.528 72.5964 183.948 73.1747 184.249 73.8318C184.55 74.4889 184.727 75.212 184.77 75.9598C184.813 76.7076 184.722 77.4655 184.5 78.1901C184.278 78.9147 183.931 79.5919 183.479 80.183Z" fill="#4DBD98"/>
<path d="M163.044 78.1296L126.696 125.66C125.816 126.809 124.578 127.551 123.252 127.726C122.596 127.813 121.939 127.756 121.318 127.558C120.696 127.362 120.122 127.029 119.63 126.58L118.586 125.603C118.096 125.152 117.695 124.597 117.403 123.967C117.116 123.333 116.947 122.637 116.906 121.917C116.863 121.198 116.952 120.469 117.166 119.772C117.382 119.076 117.715 118.424 118.149 117.854L155.076 69.5525C155.435 69.0817 155.87 68.6886 156.358 68.3957C156.846 68.1028 157.376 67.9159 157.918 67.8457C158.46 67.7755 159.003 67.8234 159.516 67.9867C160.03 68.1499 160.503 68.4252 160.91 68.7969L162.626 70.357C163.12 70.8049 163.524 71.3607 163.814 71.9928C164.104 72.6249 164.275 73.3208 164.317 74.0408C164.36 74.7609 164.272 75.4909 164.06 76.1893C163.848 76.8877 163.515 77.5407 163.081 78.1112L163.044 78.1296Z" fill="#F3E503"/>
<path opacity="0.15" d="M196.04 30.8817L168.489 66.9015C167.807 67.7907 166.911 68.4519 165.915 68.802C164.919 69.1521 163.867 69.1754 162.892 68.8689C162.244 68.6629 161.647 68.3171 161.133 67.8509L160.369 67.1584C159.335 66.2121 158.705 64.8349 158.614 63.3251C158.574 62.5785 158.665 61.8225 158.882 61.0982C159.105 60.3739 159.452 59.697 159.905 59.1057L188.019 22.4012C188.4 21.9001 188.864 21.4818 189.384 21.1706C189.904 20.8594 190.469 20.6615 191.046 20.5882C192.215 20.4374 193.365 20.7992 194.245 21.5946L195.605 22.8367C196.118 23.3031 196.538 23.8813 196.839 24.5384C197.14 25.1955 197.317 25.9186 197.36 26.6664C197.404 27.4142 197.312 28.172 197.09 28.8966C196.869 29.6212 196.522 30.2984 196.069 30.8894L196.04 30.8817Z" fill="#A5A4A4"/>
<path opacity="0.15" d="M216.409 92.7842L188.826 128.796C188.376 129.389 187.828 129.884 187.213 130.252C186.599 130.62 185.93 130.854 185.247 130.939C184.563 131.031 183.876 130.971 183.228 130.763C182.582 130.556 181.984 130.21 181.47 129.745L180.705 129.053C179.67 128.109 179.041 126.731 178.956 125.221C178.912 124.474 179.003 123.716 179.224 122.992C179.446 122.268 179.793 121.591 180.247 121.001L208.357 84.2955C209.132 83.2875 210.222 82.6368 211.389 82.4857C212.556 82.3346 213.705 82.6953 214.584 83.4891L215.95 84.7328C216.986 85.6757 217.616 87.0535 217.702 88.5633C217.788 90.0731 217.323 91.5914 216.409 92.7842Z" fill="#A5A4A4"/>
<path opacity="0.15" d="M125.348 68.72L97.7653 104.732C97.315 105.325 96.7666 105.82 96.152 106.188C95.5375 106.556 94.8692 106.79 94.1859 106.875C93.5017 106.967 92.8153 106.907 92.1673 106.699C91.5206 106.492 90.9234 106.146 90.4088 105.681L89.644 104.988C88.6089 104.045 87.9797 102.666 87.8947 101.157C87.8506 100.409 87.9419 99.6518 88.1634 98.9277C88.385 98.2035 88.7323 97.527 89.1855 96.9371L117.296 60.2313C118.071 59.2233 119.161 58.5726 120.328 58.4215C121.495 58.2703 122.643 58.6311 123.523 59.4249L124.889 60.6686C125.925 61.6115 126.555 62.9893 126.641 64.4991C126.727 66.0089 126.262 67.5272 125.348 68.72Z" fill="#A5A4A4"/>
<path opacity="0.15" d="M120.622 100.719L93.0399 136.73C92.5895 137.324 92.0411 137.818 91.4266 138.186C90.8121 138.554 90.1437 138.788 89.4604 138.874C88.7762 138.965 88.0898 138.905 87.4418 138.698C86.7951 138.49 86.1979 138.144 85.6833 137.68L84.9185 136.987C83.8834 136.043 83.2542 134.665 83.1692 133.155C83.1251 132.408 83.2164 131.65 83.438 130.926C83.6595 130.202 84.0069 129.526 84.46 128.936L112.571 92.2299C113.346 91.2219 114.436 90.5712 115.602 90.4201C116.769 90.2689 117.918 90.6297 118.797 91.4235L120.164 92.6672C121.199 93.6101 121.83 94.9879 121.916 96.4977C122.002 98.0075 121.536 99.5258 120.622 100.719Z" fill="#A5A4A4"/>
<path opacity="0.15" d="M164.207 47.7346L136.625 83.7465C136.174 84.3396 135.626 84.8346 135.011 85.2026C134.397 85.5706 133.728 85.8042 133.045 85.8899C132.361 85.9812 131.675 85.9213 131.027 85.7138C130.38 85.5063 129.783 85.1605 129.268 84.6956L128.503 84.0031C127.468 83.0594 126.839 81.6811 126.754 80.1712C126.71 79.424 126.801 78.6665 127.023 77.9424C127.244 77.2182 127.592 76.5417 128.045 75.9518L156.156 39.246C156.93 38.238 158.02 37.5873 159.187 37.4361C160.354 37.285 161.503 37.6458 162.382 38.4396L163.748 39.6833C164.784 40.6262 165.414 42.004 165.5 43.5138C165.586 45.0236 165.121 46.5418 164.207 47.7346Z" fill="#A5A4A4"/>
<path opacity="0.15" d="M183.549 111.701L155.966 147.713C155.516 148.306 154.968 148.801 154.353 149.169C153.739 149.537 153.07 149.771 152.387 149.857C151.703 149.948 151.016 149.888 150.368 149.68C149.722 149.473 149.124 149.127 148.61 148.662L147.845 147.97C146.81 147.026 146.181 145.648 146.096 144.138C146.052 143.391 146.143 142.633 146.364 141.909C146.586 141.185 146.933 140.508 147.387 139.919L175.497 103.213C176.272 102.205 177.362 101.554 178.529 101.403C179.696 101.252 180.845 101.612 181.724 102.406L183.09 103.65C184.126 104.593 184.756 105.971 184.842 107.481C184.928 108.99 184.463 110.509 183.549 111.701Z" fill="#A5A4A4"/>
<path opacity="0.15" d="M225.954 45.0275L198.372 81.0394C197.921 81.6325 197.373 82.1275 196.758 82.4955C196.144 82.8635 195.476 83.0971 194.792 83.1829C194.108 83.2741 193.422 83.2142 192.774 83.0067C192.127 82.7992 191.53 82.4535 191.015 81.9886L190.25 81.296C189.215 80.3523 188.586 78.974 188.501 77.4641C188.457 76.7169 188.548 75.9594 188.77 75.2353C188.991 74.5111 189.339 73.8346 189.792 73.2447L217.903 36.5389C218.678 35.5309 219.768 34.8802 220.934 34.729C222.101 34.5779 223.25 34.9387 224.129 35.7325L225.496 36.9762C226.531 37.9191 227.162 39.2969 227.248 40.8067C227.333 42.3165 226.868 43.8347 225.954 45.0275Z" fill="#A5A4A4"/>
<path opacity="0.15" d="M149.628 127.282L122.046 163.286C121.133 164.478 119.846 165.248 118.467 165.428C117.783 165.516 117.097 165.456 116.448 165.252C115.801 165.044 115.204 164.698 114.689 164.234L113.925 163.541C113.413 163.066 112.997 162.48 112.698 161.817C112.398 161.16 112.222 160.438 112.18 159.691C112.136 158.944 112.227 158.187 112.448 157.463C112.67 156.739 113.017 156.063 113.47 155.473L141.579 118.782C142.353 117.775 143.443 117.124 144.61 116.973C145.777 116.822 146.926 117.183 147.805 117.977L149.172 119.22C150.206 120.163 150.836 121.539 150.922 123.046C151.009 124.554 150.545 126.07 149.633 127.262L149.628 127.282Z" fill="#A5A4A4"/>
</g>
<g filter="url(#filter1_d)">
<path d="M56.9223 80.542H53.2683L53.0863 81.704C53.2543 81.6853 53.4083 81.6713 53.5483 81.662C53.6883 81.6433 53.833 81.634 53.9823 81.634C54.5143 81.634 55.009 81.7273 55.4663 81.914C55.9237 82.1007 56.3157 82.3573 56.6423 82.684C56.969 83.0107 57.2257 83.4027 57.4123 83.86C57.599 84.3173 57.6923 84.8167 57.6923 85.358C57.6923 85.9273 57.585 86.4407 57.3703 86.898C57.165 87.3553 56.871 87.7473 56.4883 88.074C56.1057 88.3913 55.639 88.634 55.0883 88.802C54.5377 88.9793 53.9263 89.068 53.2543 89.068C52.6197 89.068 52.013 88.9887 51.4343 88.83C50.865 88.6807 50.3283 88.4473 49.8243 88.13L50.2303 85.554C50.697 85.9553 51.173 86.2633 51.6583 86.478C52.1437 86.6833 52.6057 86.786 53.0443 86.786C53.6043 86.786 54.0477 86.6367 54.3743 86.338C54.701 86.03 54.8643 85.652 54.8643 85.204C54.8643 84.6813 54.645 84.2613 54.2063 83.944C53.7677 83.6173 53.1937 83.454 52.4843 83.454C52.167 83.454 51.8403 83.4913 51.5043 83.566C51.1683 83.6313 50.837 83.7387 50.5103 83.888L51.3923 78.218H56.9223V80.542ZM65.0646 82.334C65.1392 82.3433 65.1999 82.348 65.2466 82.348C65.3026 82.348 65.3492 82.348 65.3866 82.348C65.7319 82.348 66.0119 82.2453 66.2266 82.04C66.4412 81.8347 66.5486 81.5687 66.5486 81.242C66.5486 80.9247 66.4459 80.668 66.2406 80.472C66.0446 80.276 65.7879 80.178 65.4706 80.178C65.1346 80.178 64.8639 80.29 64.6586 80.514C64.4532 80.738 64.3506 81.0273 64.3506 81.382H61.8166C61.8819 80.8313 62.0172 80.3413 62.2226 79.912C62.4372 79.4827 62.7079 79.1233 63.0346 78.834C63.3612 78.5353 63.7439 78.3113 64.1826 78.162C64.6212 78.0033 65.1066 77.924 65.6386 77.924C66.1612 77.924 66.6326 77.9987 67.0526 78.148C67.4819 78.288 67.8459 78.4933 68.1446 78.764C68.4526 79.0253 68.6859 79.3473 68.8446 79.73C69.0126 80.1033 69.0966 80.5233 69.0966 80.99C69.0966 81.494 68.9986 81.9093 68.8026 82.236C68.6159 82.5533 68.3452 82.8287 67.9906 83.062C68.5319 83.23 68.9519 83.5333 69.2506 83.972C69.5586 84.4013 69.7126 84.9333 69.7126 85.568C69.7126 86.0907 69.6099 86.5667 69.4046 86.996C69.1992 87.4253 68.9099 87.794 68.5366 88.102C68.1726 88.41 67.7339 88.648 67.2206 88.816C66.7166 88.984 66.1612 89.068 65.5546 89.068C64.7426 89.068 64.0099 88.9093 63.3566 88.592C62.7032 88.2747 62.1806 87.7707 61.7886 87.08C61.6112 86.772 61.4899 86.464 61.4246 86.156C61.3686 85.848 61.3406 85.5353 61.3406 85.218H64.0566C64.0752 85.7127 64.2199 86.0907 64.4906 86.352C64.7612 86.604 65.1252 86.73 65.5826 86.73C66.0679 86.73 66.4226 86.5993 66.6466 86.338C66.8706 86.0767 66.9826 85.7547 66.9826 85.372C66.9826 84.9147 66.8472 84.5693 66.5766 84.336C66.3059 84.1027 65.9839 83.986 65.6106 83.986C65.5172 83.986 65.4286 83.9953 65.3446 84.014C65.2606 84.0233 65.1672 84.0373 65.0646 84.056V82.334ZM74.6488 88.774L77.6448 85.33H77.5888C77.3275 85.4887 77.1128 85.5867 76.9448 85.624C76.7768 85.652 76.6275 85.666 76.4968 85.666C75.9835 85.666 75.5075 85.568 75.0688 85.372C74.6395 85.176 74.2661 84.91 73.9488 84.574C73.6408 84.2287 73.3981 83.8273 73.2208 83.37C73.0435 82.9127 72.9548 82.4227 72.9548 81.9C72.9548 81.34 73.0575 80.822 73.2628 80.346C73.4681 79.8607 73.7621 79.4407 74.1448 79.086C74.5368 78.722 75.0081 78.4373 75.5588 78.232C76.1095 78.0267 76.7301 77.924 77.4208 77.924C78.1208 77.924 78.7461 78.0267 79.2968 78.232C79.8475 78.4373 80.3141 78.7173 80.6968 79.072C81.0888 79.4267 81.3875 79.842 81.5928 80.318C81.7981 80.7847 81.9008 81.284 81.9008 81.816C81.9008 82.4133 81.7655 83.062 81.4948 83.762C81.2335 84.4527 80.8275 85.134 80.2768 85.806L77.8268 88.774H74.6488ZM79.1848 81.844C79.1848 81.6013 79.1381 81.3773 79.0448 81.172C78.9515 80.9573 78.8255 80.7707 78.6668 80.612C78.5081 80.4533 78.3215 80.3273 78.1068 80.234C77.9015 80.1407 77.6775 80.094 77.4348 80.094C77.1921 80.094 76.9635 80.1407 76.7488 80.234C76.5435 80.3273 76.3615 80.4533 76.2028 80.612C76.0441 80.7707 75.9181 80.9573 75.8248 81.172C75.7315 81.3773 75.6848 81.6013 75.6848 81.844C75.6848 82.0867 75.7315 82.3153 75.8248 82.53C75.9181 82.7353 76.0441 82.9173 76.2028 83.076C76.3615 83.2347 76.5435 83.3607 76.7488 83.454C76.9635 83.5473 77.1921 83.594 77.4348 83.594C77.6775 83.594 77.9015 83.5473 78.1068 83.454C78.3215 83.3607 78.5081 83.2347 78.6668 83.076C78.8255 82.9173 78.9515 82.7353 79.0448 82.53C79.1381 82.3153 79.1848 82.0867 79.1848 81.844ZM86.445 88.774L89.441 85.33H89.385C89.1237 85.4887 88.909 85.5867 88.741 85.624C88.573 85.652 88.4237 85.666 88.293 85.666C87.7797 85.666 87.3037 85.568 86.865 85.372C86.4357 85.176 86.0624 84.91 85.745 84.574C85.437 84.2287 85.1944 83.8273 85.017 83.37C84.8397 82.9127 84.751 82.4227 84.751 81.9C84.751 81.34 84.8537 80.822 85.059 80.346C85.2644 79.8607 85.5584 79.4407 85.941 79.086C86.333 78.722 86.8044 78.4373 87.355 78.232C87.9057 78.0267 88.5264 77.924 89.217 77.924C89.917 77.924 90.5424 78.0267 91.093 78.232C91.6437 78.4373 92.1104 78.7173 92.493 79.072C92.885 79.4267 93.1837 79.842 93.389 80.318C93.5944 80.7847 93.697 81.284 93.697 81.816C93.697 82.4133 93.5617 83.062 93.291 83.762C93.0297 84.4527 92.6237 85.134 92.073 85.806L89.623 88.774H86.445ZM90.981 81.844C90.981 81.6013 90.9344 81.3773 90.841 81.172C90.7477 80.9573 90.6217 80.7707 90.463 80.612C90.3044 80.4533 90.1177 80.3273 89.903 80.234C89.6977 80.1407 89.4737 80.094 89.231 80.094C88.9884 80.094 88.7597 80.1407 88.545 80.234C88.3397 80.3273 88.1577 80.4533 87.999 80.612C87.8404 80.7707 87.7144 80.9573 87.621 81.172C87.5277 81.3773 87.481 81.6013 87.481 81.844C87.481 82.0867 87.5277 82.3153 87.621 82.53C87.7144 82.7353 87.8404 82.9173 87.999 83.076C88.1577 83.2347 88.3397 83.3607 88.545 83.454C88.7597 83.5473 88.9884 83.594 89.231 83.594C89.4737 83.594 89.6977 83.5473 89.903 83.454C90.1177 83.3607 90.3044 83.2347 90.463 83.076C90.6217 82.9173 90.7477 82.7353 90.841 82.53C90.9344 82.3153 90.981 82.0867 90.981 81.844ZM106.806 85.582C106.806 85.7593 106.838 85.9273 106.904 86.086C106.969 86.2447 107.058 86.3847 107.17 86.506C107.282 86.618 107.412 86.7113 107.562 86.786C107.72 86.8513 107.888 86.884 108.066 86.884C108.234 86.884 108.392 86.8513 108.542 86.786C108.7 86.7113 108.836 86.618 108.948 86.506C109.069 86.3847 109.162 86.2493 109.228 86.1C109.293 85.9413 109.326 85.7733 109.326 85.596C109.326 85.2413 109.2 84.9427 108.948 84.7C108.705 84.448 108.411 84.322 108.066 84.322C107.711 84.322 107.412 84.448 107.17 84.7C106.927 84.9427 106.806 85.2367 106.806 85.582ZM106.904 80.906C106.904 81.2327 107.016 81.5127 107.24 81.746C107.464 81.97 107.739 82.082 108.066 82.082C108.234 82.082 108.388 82.0493 108.528 81.984C108.668 81.9187 108.789 81.8347 108.892 81.732C108.994 81.62 109.074 81.494 109.13 81.354C109.195 81.214 109.228 81.0693 109.228 80.92C109.228 80.6027 109.116 80.332 108.892 80.108C108.668 79.8747 108.392 79.758 108.066 79.758C107.739 79.758 107.464 79.87 107.24 80.094C107.016 80.318 106.904 80.5887 106.904 80.906ZM106.12 83.202C105.018 82.7447 104.468 81.97 104.468 80.878C104.468 80.43 104.556 80.0287 104.734 79.674C104.911 79.31 105.154 78.9973 105.462 78.736C105.779 78.4747 106.157 78.274 106.596 78.134C107.044 77.994 107.534 77.924 108.066 77.924C108.598 77.924 109.083 77.994 109.522 78.134C109.97 78.274 110.348 78.4747 110.656 78.736C110.973 78.9973 111.22 79.31 111.398 79.674C111.575 80.0287 111.664 80.43 111.664 80.878C111.664 81.158 111.636 81.41 111.58 81.634C111.524 81.8487 111.426 82.0493 111.286 82.236C111.155 82.4133 110.978 82.5813 110.754 82.74C110.539 82.8987 110.268 83.0527 109.942 83.202C111.379 83.762 112.098 84.6673 112.098 85.918C112.098 86.366 111.995 86.7813 111.79 87.164C111.594 87.5467 111.314 87.878 110.95 88.158C110.595 88.438 110.17 88.6573 109.676 88.816C109.19 88.9747 108.654 89.054 108.066 89.054C107.496 89.054 106.964 88.9747 106.47 88.816C105.984 88.6667 105.56 88.452 105.196 88.172C104.832 87.892 104.547 87.5607 104.342 87.178C104.136 86.7953 104.034 86.3753 104.034 85.918C104.034 84.6393 104.729 83.734 106.12 83.202ZM119.288 82.334C119.363 82.3433 119.423 82.348 119.47 82.348C119.526 82.348 119.573 82.348 119.61 82.348C119.955 82.348 120.235 82.2453 120.45 82.04C120.665 81.8347 120.772 81.5687 120.772 81.242C120.772 80.9247 120.669 80.668 120.464 80.472C120.268 80.276 120.011 80.178 119.694 80.178C119.358 80.178 119.087 80.29 118.882 80.514C118.677 80.738 118.574 81.0273 118.574 81.382H116.04C116.105 80.8313 116.241 80.3413 116.446 79.912C116.661 79.4827 116.931 79.1233 117.258 78.834C117.585 78.5353 117.967 78.3113 118.406 78.162C118.845 78.0033 119.33 77.924 119.862 77.924C120.385 77.924 120.856 77.9987 121.276 78.148C121.705 78.288 122.069 78.4933 122.368 78.764C122.676 79.0253 122.909 79.3473 123.068 79.73C123.236 80.1033 123.32 80.5233 123.32 80.99C123.32 81.494 123.222 81.9093 123.026 82.236C122.839 82.5533 122.569 82.8287 122.214 83.062C122.755 83.23 123.175 83.5333 123.474 83.972C123.782 84.4013 123.936 84.9333 123.936 85.568C123.936 86.0907 123.833 86.5667 123.628 86.996C123.423 87.4253 123.133 87.794 122.76 88.102C122.396 88.41 121.957 88.648 121.444 88.816C120.94 88.984 120.385 89.068 119.778 89.068C118.966 89.068 118.233 88.9093 117.58 88.592C116.927 88.2747 116.404 87.7707 116.012 87.08C115.835 86.772 115.713 86.464 115.648 86.156C115.592 85.848 115.564 85.5353 115.564 85.218H118.28C118.299 85.7127 118.443 86.0907 118.714 86.352C118.985 86.604 119.349 86.73 119.806 86.73C120.291 86.73 120.646 86.5993 120.87 86.338C121.094 86.0767 121.206 85.7547 121.206 85.372C121.206 84.9147 121.071 84.5693 120.8 84.336C120.529 84.1027 120.207 83.986 119.834 83.986C119.741 83.986 119.652 83.9953 119.568 84.014C119.484 84.0233 119.391 84.0373 119.288 84.056V82.334ZM131.028 83.146L127.738 78.218H131.126L132.554 80.948L134.318 78.218H137.706L134.22 83.146L138.154 88.774H134.808L132.694 85.33L130.216 88.774H126.898L131.028 83.146ZM144.561 83.146L141.271 78.218H144.659L146.087 80.948L147.851 78.218H151.239L147.753 83.146L151.687 88.774H148.341L146.227 85.33L143.749 88.774H140.431L144.561 83.146ZM165.132 83.146L161.842 78.218H165.23L166.658 80.948L168.422 78.218H171.81L168.324 83.146L172.258 88.774H168.912L166.798 85.33L164.32 88.774H161.002L165.132 83.146ZM178.664 83.146L175.374 78.218H178.762L180.19 80.948L181.954 78.218H185.342L181.856 83.146L185.79 88.774H182.444L180.33 85.33L177.852 88.774H174.534L178.664 83.146ZM192.197 83.146L188.907 78.218H192.295L193.723 80.948L195.487 78.218H198.875L195.389 83.146L199.323 88.774H195.977L193.863 85.33L191.385 88.774H188.067L192.197 83.146ZM205.729 83.146L202.439 78.218H205.827L207.255 80.948L209.019 78.218H212.407L208.921 83.146L212.855 88.774H209.509L207.395 85.33L204.917 88.774H201.599L205.729 83.146ZM226.356 82.334C226.431 82.3433 226.492 82.348 226.538 82.348C226.594 82.348 226.641 82.348 226.678 82.348C227.024 82.348 227.304 82.2453 227.518 82.04C227.733 81.8347 227.84 81.5687 227.84 81.242C227.84 80.9247 227.738 80.668 227.532 80.472C227.336 80.276 227.08 80.178 226.762 80.178C226.426 80.178 226.156 80.29 225.95 80.514C225.745 80.738 225.642 81.0273 225.642 81.382H223.108C223.174 80.8313 223.309 80.3413 223.514 79.912C223.729 79.4827 224 79.1233 224.326 78.834C224.653 78.5353 225.036 78.3113 225.474 78.162C225.913 78.0033 226.398 77.924 226.93 77.924C227.453 77.924 227.924 77.9987 228.344 78.148C228.774 78.288 229.138 78.4933 229.436 78.764C229.744 79.0253 229.978 79.3473 230.136 79.73C230.304 80.1033 230.388 80.5233 230.388 80.99C230.388 81.494 230.29 81.9093 230.094 82.236C229.908 82.5533 229.637 82.8287 229.282 83.062C229.824 83.23 230.244 83.5333 230.542 83.972C230.85 84.4013 231.004 84.9333 231.004 85.568C231.004 86.0907 230.902 86.5667 230.696 86.996C230.491 87.4253 230.202 87.794 229.828 88.102C229.464 88.41 229.026 88.648 228.512 88.816C228.008 88.984 227.453 89.068 226.846 89.068C226.034 89.068 225.302 88.9093 224.648 88.592C223.995 88.2747 223.472 87.7707 223.08 87.08C222.903 86.772 222.782 86.464 222.716 86.156C222.66 85.848 222.632 85.5353 222.632 85.218H225.348C225.367 85.7127 225.512 86.0907 225.782 86.352C226.053 86.604 226.417 86.73 226.874 86.73C227.36 86.73 227.714 86.5993 227.938 86.338C228.162 86.0767 228.274 85.7547 228.274 85.372C228.274 84.9147 228.139 84.5693 227.868 84.336C227.598 84.1027 227.276 83.986 226.902 83.986C226.809 83.986 226.72 83.9953 226.636 84.014C226.552 84.0233 226.459 84.0373 226.356 84.056V82.334ZM241.806 80.542H238.152L237.97 81.704C238.138 81.6853 238.292 81.6713 238.432 81.662C238.572 81.6433 238.717 81.634 238.866 81.634C239.398 81.634 239.893 81.7273 240.35 81.914C240.808 82.1007 241.2 82.3573 241.526 82.684C241.853 83.0107 242.11 83.4027 242.296 83.86C242.483 84.3173 242.576 84.8167 242.576 85.358C242.576 85.9273 242.469 86.4407 242.254 86.898C242.049 87.3553 241.755 87.7473 241.372 88.074C240.99 88.3913 240.523 88.634 239.972 88.802C239.422 88.9793 238.81 89.068 238.138 89.068C237.504 89.068 236.897 88.9887 236.318 88.83C235.749 88.6807 235.212 88.4473 234.708 88.13L235.114 85.554C235.581 85.9553 236.057 86.2633 236.542 86.478C237.028 86.6833 237.49 86.786 237.928 86.786C238.488 86.786 238.932 86.6367 239.258 86.338C239.585 86.03 239.748 85.652 239.748 85.204C239.748 84.6813 239.529 84.2613 239.09 83.944C238.652 83.6173 238.078 83.454 237.368 83.454C237.051 83.454 236.724 83.4913 236.388 83.566C236.052 83.6313 235.721 83.7387 235.394 83.888L236.276 78.218H241.806V80.542ZM250.855 80.542H246.445V78.218H255.111L249.063 88.774H246.039L250.855 80.542ZM259.095 88.774L262.091 85.33H262.035C261.774 85.4887 261.559 85.5867 261.391 85.624C261.223 85.652 261.074 85.666 260.943 85.666C260.43 85.666 259.954 85.568 259.515 85.372C259.086 85.176 258.713 84.91 258.395 84.574C258.087 84.2287 257.845 83.8273 257.667 83.37C257.49 82.9127 257.401 82.4227 257.401 81.9C257.401 81.34 257.504 80.822 257.709 80.346C257.915 79.8607 258.209 79.4407 258.591 79.086C258.983 78.722 259.455 78.4373 260.005 78.232C260.556 78.0267 261.177 77.924 261.867 77.924C262.567 77.924 263.193 78.0267 263.743 78.232C264.294 78.4373 264.761 78.7173 265.143 79.072C265.535 79.4267 265.834 79.842 266.039 80.318C266.245 80.7847 266.347 81.284 266.347 81.816C266.347 82.4133 266.212 83.062 265.941 83.762C265.68 84.4527 265.274 85.134 264.723 85.806L262.273 88.774H259.095ZM263.631 81.844C263.631 81.6013 263.585 81.3773 263.491 81.172C263.398 80.9573 263.272 80.7707 263.113 80.612C262.955 80.4533 262.768 80.3273 262.553 80.234C262.348 80.1407 262.124 80.094 261.881 80.094C261.639 80.094 261.41 80.1407 261.195 80.234C260.99 80.3273 260.808 80.4533 260.649 80.612C260.491 80.7707 260.365 80.9573 260.271 81.172C260.178 81.3773 260.131 81.6013 260.131 81.844C260.131 82.0867 260.178 82.3153 260.271 82.53C260.365 82.7353 260.491 82.9173 260.649 83.076C260.808 83.2347 260.99 83.3607 261.195 83.454C261.41 83.5473 261.639 83.594 261.881 83.594C262.124 83.594 262.348 83.5473 262.553 83.454C262.768 83.3607 262.955 83.2347 263.113 83.076C263.272 82.9173 263.398 82.7353 263.491 82.53C263.585 82.3153 263.631 82.0867 263.631 81.844Z" fill="white"/>
</g>
<path d="M53.572 112.708H51.475V113.842H53.455V115.336H51.475V116.506H53.572V118H49.711V111.214H53.572V112.708ZM57.3278 114.382L55.2128 111.214H57.3908L58.3088 112.969L59.4428 111.214H61.6208L59.3798 114.382L61.9088 118H59.7578L58.3988 115.786L56.8058 118H54.6728L57.3278 114.382ZM64.9212 114.328H65.5062C66.1542 114.328 66.4782 114.046 66.4782 113.482C66.4782 112.918 66.1542 112.636 65.5062 112.636H64.9212V114.328ZM64.9212 118H63.1572V111.214H65.9652C66.7272 111.214 67.3092 111.412 67.7112 111.808C68.1192 112.204 68.3232 112.762 68.3232 113.482C68.3232 114.202 68.1192 114.76 67.7112 115.156C67.3092 115.552 66.7272 115.75 65.9652 115.75H64.9212V118ZM71.5608 111.214V118H69.7968V111.214H71.5608ZM75.2825 114.247H75.6155C75.9635 114.247 76.2305 114.175 76.4165 114.031C76.6025 113.887 76.6955 113.68 76.6955 113.41C76.6955 113.14 76.6025 112.933 76.4165 112.789C76.2305 112.645 75.9635 112.573 75.6155 112.573H75.2825V114.247ZM79.1615 118H76.9655L75.2825 115.39V118H73.5185V111.214H76.2635C76.6415 111.214 76.9715 111.271 77.2535 111.385C77.5355 111.493 77.7665 111.643 77.9465 111.835C78.1325 112.027 78.2705 112.249 78.3605 112.501C78.4565 112.753 78.5045 113.023 78.5045 113.311C78.5045 113.827 78.3785 114.247 78.1265 114.571C77.8805 114.889 77.5145 115.105 77.0285 115.219L79.1615 118ZM81.7521 114.742L79.2771 111.214H81.3831L82.6431 113.068L83.8941 111.214H86.0001L83.5161 114.742V118H81.7521V114.742Z" fill="#4DBD98"/>
<path d="M53.572 112.708H51.475V113.842H53.455V115.336H51.475V116.506H53.572V118H49.711V111.214H53.572V112.708ZM57.3278 114.382L55.2128 111.214H57.3908L58.3088 112.969L59.4428 111.214H61.6208L59.3798 114.382L61.9088 118H59.7578L58.3988 115.786L56.8058 118H54.6728L57.3278 114.382ZM64.9212 114.328H65.5062C66.1542 114.328 66.4782 114.046 66.4782 113.482C66.4782 112.918 66.1542 112.636 65.5062 112.636H64.9212V114.328ZM64.9212 118H63.1572V111.214H65.9652C66.7272 111.214 67.3092 111.412 67.7112 111.808C68.1192 112.204 68.3232 112.762 68.3232 113.482C68.3232 114.202 68.1192 114.76 67.7112 115.156C67.3092 115.552 66.7272 115.75 65.9652 115.75H64.9212V118ZM71.5608 111.214V118H69.7968V111.214H71.5608ZM75.2825 114.247H75.6155C75.9635 114.247 76.2305 114.175 76.4165 114.031C76.6025 113.887 76.6955 113.68 76.6955 113.41C76.6955 113.14 76.6025 112.933 76.4165 112.789C76.2305 112.645 75.9635 112.573 75.6155 112.573H75.2825V114.247ZM79.1615 118H76.9655L75.2825 115.39V118H73.5185V111.214H76.2635C76.6415 111.214 76.9715 111.271 77.2535 111.385C77.5355 111.493 77.7665 111.643 77.9465 111.835C78.1325 112.027 78.2705 112.249 78.3605 112.501C78.4565 112.753 78.5045 113.023 78.5045 113.311C78.5045 113.827 78.3785 114.247 78.1265 114.571C77.8805 114.889 77.5145 115.105 77.0285 115.219L79.1615 118ZM81.7521 114.742L79.2771 111.214H81.3831L82.6431 113.068L83.8941 111.214H86.0001L83.5161 114.742V118H81.7521V114.742Z" fill="#4DBD98"/>
<path d="M53.572 112.708H51.475V113.842H53.455V115.336H51.475V116.506H53.572V118H49.711V111.214H53.572V112.708ZM57.3278 114.382L55.2128 111.214H57.3908L58.3088 112.969L59.4428 111.214H61.6208L59.3798 114.382L61.9088 118H59.7578L58.3988 115.786L56.8058 118H54.6728L57.3278 114.382ZM64.9212 114.328H65.5062C66.1542 114.328 66.4782 114.046 66.4782 113.482C66.4782 112.918 66.1542 112.636 65.5062 112.636H64.9212V114.328ZM64.9212 118H63.1572V111.214H65.9652C66.7272 111.214 67.3092 111.412 67.7112 111.808C68.1192 112.204 68.3232 112.762 68.3232 113.482C68.3232 114.202 68.1192 114.76 67.7112 115.156C67.3092 115.552 66.7272 115.75 65.9652 115.75H64.9212V118ZM71.5608 111.214V118H69.7968V111.214H71.5608ZM75.2825 114.247H75.6155C75.9635 114.247 76.2305 114.175 76.4165 114.031C76.6025 113.887 76.6955 113.68 76.6955 113.41C76.6955 113.14 76.6025 112.933 76.4165 112.789C76.2305 112.645 75.9635 112.573 75.6155 112.573H75.2825V114.247ZM79.1615 118H76.9655L75.2825 115.39V118H73.5185V111.214H76.2635C76.6415 111.214 76.9715 111.271 77.2535 111.385C77.5355 111.493 77.7665 111.643 77.9465 111.835C78.1325 112.027 78.2705 112.249 78.3605 112.501C78.4565 112.753 78.5045 113.023 78.5045 113.311C78.5045 113.827 78.3785 114.247 78.1265 114.571C77.8805 114.889 77.5145 115.105 77.0285 115.219L79.1615 118ZM81.7521 114.742L79.2771 111.214H81.3831L82.6431 113.068L83.8941 111.214H86.0001L83.5161 114.742V118H81.7521V114.742Z" fill="#4DBD98"/>
<path d="M53.572 112.708H51.475V113.842H53.455V115.336H51.475V116.506H53.572V118H49.711V111.214H53.572V112.708ZM57.3278 114.382L55.2128 111.214H57.3908L58.3088 112.969L59.4428 111.214H61.6208L59.3798 114.382L61.9088 118H59.7578L58.3988 115.786L56.8058 118H54.6728L57.3278 114.382ZM64.9212 114.328H65.5062C66.1542 114.328 66.4782 114.046 66.4782 113.482C66.4782 112.918 66.1542 112.636 65.5062 112.636H64.9212V114.328ZM64.9212 118H63.1572V111.214H65.9652C66.7272 111.214 67.3092 111.412 67.7112 111.808C68.1192 112.204 68.3232 112.762 68.3232 113.482C68.3232 114.202 68.1192 114.76 67.7112 115.156C67.3092 115.552 66.7272 115.75 65.9652 115.75H64.9212V118ZM71.5608 111.214V118H69.7968V111.214H71.5608ZM75.2825 114.247H75.6155C75.9635 114.247 76.2305 114.175 76.4165 114.031C76.6025 113.887 76.6955 113.68 76.6955 113.41C76.6955 113.14 76.6025 112.933 76.4165 112.789C76.2305 112.645 75.9635 112.573 75.6155 112.573H75.2825V114.247ZM79.1615 118H76.9655L75.2825 115.39V118H73.5185V111.214H76.2635C76.6415 111.214 76.9715 111.271 77.2535 111.385C77.5355 111.493 77.7665 111.643 77.9465 111.835C78.1325 112.027 78.2705 112.249 78.3605 112.501C78.4565 112.753 78.5045 113.023 78.5045 113.311C78.5045 113.827 78.3785 114.247 78.1265 114.571C77.8805 114.889 77.5145 115.105 77.0285 115.219L79.1615 118ZM81.7521 114.742L79.2771 111.214H81.3831L82.6431 113.068L83.8941 111.214H86.0001L83.5161 114.742V118H81.7521V114.742Z" fill="#4DBD98"/>
<path d="M52.3 132.873C51.3833 132.873 50.683 132.536 50.199 131.861C49.715 131.179 49.473 130.189 49.473 128.891C49.473 127.608 49.715 126.629 50.199 125.954C50.683 125.28 51.3833 124.942 52.3 124.942C53.2167 124.942 53.917 125.28 54.401 125.954C54.885 126.629 55.127 127.608 55.127 128.891C55.127 130.182 54.885 131.168 54.401 131.85C53.917 132.532 53.2167 132.873 52.3 132.873ZM52.3 131.762C52.7987 131.762 53.1617 131.535 53.389 131.08C53.6163 130.618 53.73 129.889 53.73 128.891C53.73 127.901 53.6163 127.183 53.389 126.735C53.1617 126.281 52.7987 126.053 52.3 126.053C51.8013 126.053 51.4383 126.281 51.211 126.735C50.9837 127.183 50.87 127.901 50.87 128.891C50.87 129.889 50.9837 130.618 51.211 131.08C51.4383 131.535 51.8013 131.762 52.3 131.762ZM61.0407 128.792C61.4954 128.917 61.8437 129.144 62.0857 129.474C62.335 129.804 62.4597 130.208 62.4597 130.684C62.4597 131.366 62.203 131.902 61.6897 132.29C61.1764 132.672 60.465 132.862 59.5557 132.862C58.6464 132.862 57.935 132.672 57.4217 132.29C56.9084 131.902 56.6517 131.366 56.6517 130.684C56.6517 130.208 56.7764 129.804 57.0257 129.474C57.275 129.137 57.627 128.91 58.0817 128.792C57.693 128.646 57.3887 128.418 57.1687 128.11C56.9487 127.795 56.8387 127.428 56.8387 127.01C56.8387 126.365 57.0807 125.855 57.5647 125.481C58.0487 125.107 58.7124 124.92 59.5557 124.92C60.399 124.92 61.0627 125.107 61.5467 125.481C62.0307 125.855 62.2727 126.365 62.2727 127.01C62.2727 127.436 62.1627 127.806 61.9427 128.121C61.7227 128.437 61.422 128.66 61.0407 128.792ZM59.5557 126.031C58.639 126.031 58.1807 126.405 58.1807 127.153C58.1807 127.527 58.2944 127.813 58.5217 128.011C58.7564 128.202 59.101 128.297 59.5557 128.297C60.0104 128.297 60.3514 128.202 60.5787 128.011C60.8134 127.813 60.9307 127.527 60.9307 127.153C60.9307 126.405 60.4724 126.031 59.5557 126.031ZM59.5557 131.751C60.6044 131.751 61.1287 131.359 61.1287 130.574C61.1287 129.79 60.6044 129.397 59.5557 129.397C58.507 129.397 57.9827 129.79 57.9827 130.574C57.9827 131.359 58.507 131.751 59.5557 131.751ZM64.3364 133.577L63.2914 133.247L66.1184 124.403L67.1634 124.733L64.3364 133.577ZM71.9756 131.63H73.6586V132.774H68.8736V131.63H70.5566V126.636L69.2256 127.439L68.6646 126.405L70.9636 125.019H71.9756V131.63ZM75.4804 125.019H80.8814V126.075L77.3614 132.774H75.8544L79.3634 126.163H75.4804V125.019Z" fill="white"/>
<path d="M250.598 115.482C250.19 114.984 249.686 114.735 249.086 114.735C248.822 114.735 248.576 114.783 248.348 114.879C248.126 114.975 247.934 115.107 247.772 115.275C247.61 115.437 247.481 115.632 247.385 115.86C247.295 116.088 247.25 116.334 247.25 116.598C247.25 116.868 247.295 117.117 247.385 117.345C247.481 117.573 247.61 117.771 247.772 117.939C247.94 118.107 248.135 118.239 248.357 118.335C248.579 118.431 248.819 118.479 249.077 118.479C249.641 118.479 250.148 118.239 250.598 117.759V119.847L250.418 119.91C250.148 120.006 249.896 120.075 249.662 120.117C249.428 120.165 249.197 120.189 248.969 120.189C248.501 120.189 248.051 120.102 247.619 119.928C247.193 119.748 246.815 119.499 246.485 119.181C246.161 118.857 245.9 118.476 245.702 118.038C245.504 117.594 245.405 117.111 245.405 116.589C245.405 116.067 245.501 115.59 245.693 115.158C245.891 114.72 246.152 114.345 246.476 114.033C246.806 113.715 247.187 113.469 247.619 113.295C248.051 113.115 248.504 113.025 248.978 113.025C249.248 113.025 249.512 113.055 249.77 113.115C250.034 113.169 250.31 113.256 250.598 113.376V115.482ZM253.46 113.214L255.098 117.345L256.745 113.214H258.662L255.8 120H254.396L251.543 113.214H253.46ZM261.119 113.214L262.757 117.345L264.404 113.214H266.321L263.459 120H262.055L259.202 113.214H261.119Z" fill="#4DBD98"/>
<path d="M250.598 115.482C250.19 114.984 249.686 114.735 249.086 114.735C248.822 114.735 248.576 114.783 248.348 114.879C248.126 114.975 247.934 115.107 247.772 115.275C247.61 115.437 247.481 115.632 247.385 115.86C247.295 116.088 247.25 116.334 247.25 116.598C247.25 116.868 247.295 117.117 247.385 117.345C247.481 117.573 247.61 117.771 247.772 117.939C247.94 118.107 248.135 118.239 248.357 118.335C248.579 118.431 248.819 118.479 249.077 118.479C249.641 118.479 250.148 118.239 250.598 117.759V119.847L250.418 119.91C250.148 120.006 249.896 120.075 249.662 120.117C249.428 120.165 249.197 120.189 248.969 120.189C248.501 120.189 248.051 120.102 247.619 119.928C247.193 119.748 246.815 119.499 246.485 119.181C246.161 118.857 245.9 118.476 245.702 118.038C245.504 117.594 245.405 117.111 245.405 116.589C245.405 116.067 245.501 115.59 245.693 115.158C245.891 114.72 246.152 114.345 246.476 114.033C246.806 113.715 247.187 113.469 247.619 113.295C248.051 113.115 248.504 113.025 248.978 113.025C249.248 113.025 249.512 113.055 249.77 113.115C250.034 113.169 250.31 113.256 250.598 113.376V115.482ZM253.46 113.214L255.098 117.345L256.745 113.214H258.662L255.8 120H254.396L251.543 113.214H253.46ZM261.119 113.214L262.757 117.345L264.404 113.214H266.321L263.459 120H262.055L259.202 113.214H261.119Z" fill="#4DBD98"/>
<path d="M250.598 115.482C250.19 114.984 249.686 114.735 249.086 114.735C248.822 114.735 248.576 114.783 248.348 114.879C248.126 114.975 247.934 115.107 247.772 115.275C247.61 115.437 247.481 115.632 247.385 115.86C247.295 116.088 247.25 116.334 247.25 116.598C247.25 116.868 247.295 117.117 247.385 117.345C247.481 117.573 247.61 117.771 247.772 117.939C247.94 118.107 248.135 118.239 248.357 118.335C248.579 118.431 248.819 118.479 249.077 118.479C249.641 118.479 250.148 118.239 250.598 117.759V119.847L250.418 119.91C250.148 120.006 249.896 120.075 249.662 120.117C249.428 120.165 249.197 120.189 248.969 120.189C248.501 120.189 248.051 120.102 247.619 119.928C247.193 119.748 246.815 119.499 246.485 119.181C246.161 118.857 245.9 118.476 245.702 118.038C245.504 117.594 245.405 117.111 245.405 116.589C245.405 116.067 245.501 115.59 245.693 115.158C245.891 114.72 246.152 114.345 246.476 114.033C246.806 113.715 247.187 113.469 247.619 113.295C248.051 113.115 248.504 113.025 248.978 113.025C249.248 113.025 249.512 113.055 249.77 113.115C250.034 113.169 250.31 113.256 250.598 113.376V115.482ZM253.46 113.214L255.098 117.345L256.745 113.214H258.662L255.8 120H254.396L251.543 113.214H253.46ZM261.119 113.214L262.757 117.345L264.404 113.214H266.321L263.459 120H262.055L259.202 113.214H261.119Z" fill="#4DBD98"/>
<path d="M250.598 115.482C250.19 114.984 249.686 114.735 249.086 114.735C248.822 114.735 248.576 114.783 248.348 114.879C248.126 114.975 247.934 115.107 247.772 115.275C247.61 115.437 247.481 115.632 247.385 115.86C247.295 116.088 247.25 116.334 247.25 116.598C247.25 116.868 247.295 117.117 247.385 117.345C247.481 117.573 247.61 117.771 247.772 117.939C247.94 118.107 248.135 118.239 248.357 118.335C248.579 118.431 248.819 118.479 249.077 118.479C249.641 118.479 250.148 118.239 250.598 117.759V119.847L250.418 119.91C250.148 120.006 249.896 120.075 249.662 120.117C249.428 120.165 249.197 120.189 248.969 120.189C248.501 120.189 248.051 120.102 247.619 119.928C247.193 119.748 246.815 119.499 246.485 119.181C246.161 118.857 245.9 118.476 245.702 118.038C245.504 117.594 245.405 117.111 245.405 116.589C245.405 116.067 245.501 115.59 245.693 115.158C245.891 114.72 246.152 114.345 246.476 114.033C246.806 113.715 247.187 113.469 247.619 113.295C248.051 113.115 248.504 113.025 248.978 113.025C249.248 113.025 249.512 113.055 249.77 113.115C250.034 113.169 250.31 113.256 250.598 113.376V115.482ZM253.46 113.214L255.098 117.345L256.745 113.214H258.662L255.8 120H254.396L251.543 113.214H253.46ZM261.119 113.214L262.757 117.345L264.404 113.214H266.321L263.459 120H262.055L259.202 113.214H261.119Z" fill="#4DBD98"/>
<path d="M249.499 130.018C249.954 130.135 250.302 130.359 250.544 130.689C250.793 131.012 250.918 131.415 250.918 131.899C250.918 132.574 250.669 133.109 250.17 133.505C249.679 133.894 249.008 134.088 248.157 134.088C247.636 134.088 247.134 134.007 246.65 133.846C246.173 133.685 245.777 133.465 245.462 133.186L245.935 132.152C246.61 132.687 247.332 132.955 248.102 132.955C248.593 132.955 248.96 132.86 249.202 132.669C249.444 132.471 249.565 132.174 249.565 131.778C249.565 131.389 249.44 131.103 249.191 130.92C248.949 130.729 248.571 130.634 248.058 130.634H247.035V129.512H247.871C248.876 129.512 249.378 129.134 249.378 128.379C249.378 128.027 249.268 127.756 249.048 127.565C248.835 127.374 248.531 127.279 248.135 127.279C247.79 127.279 247.438 127.349 247.079 127.488C246.727 127.62 246.382 127.818 246.045 128.082L245.572 127.048C245.88 126.769 246.272 126.549 246.749 126.388C247.233 126.227 247.724 126.146 248.223 126.146C248.986 126.146 249.594 126.333 250.049 126.707C250.504 127.074 250.731 127.572 250.731 128.203C250.724 128.636 250.61 129.013 250.39 129.336C250.177 129.651 249.88 129.879 249.499 130.018ZM256.887 127.719V128.687L255.446 128.61L256.238 129.82L255.402 130.304L254.742 129.006L254.082 130.293L253.257 129.82L254.049 128.599L252.597 128.676V127.719L254.049 127.796L253.257 126.575L254.082 126.091L254.742 127.389L255.402 126.091L256.238 126.586L255.446 127.796L256.887 127.719ZM262.52 127.719V128.687L261.079 128.61L261.871 129.82L261.035 130.304L260.375 129.006L259.715 130.293L258.89 129.82L259.682 128.599L258.23 128.676V127.719L259.682 127.796L258.89 126.575L259.715 126.091L260.375 127.389L261.035 126.091L261.871 126.586L261.079 127.796L262.52 127.719ZM267.241 129.039C267.725 129.039 268.15 129.145 268.517 129.358C268.891 129.563 269.177 129.853 269.375 130.227C269.58 130.601 269.683 131.03 269.683 131.514C269.683 132.027 269.566 132.478 269.331 132.867C269.096 133.256 268.763 133.556 268.33 133.769C267.905 133.982 267.402 134.088 266.823 134.088C266.339 134.088 265.859 134.007 265.382 133.846C264.913 133.677 264.524 133.457 264.216 133.186L264.689 132.152C265.393 132.687 266.112 132.955 266.845 132.955C267.329 132.955 267.699 132.834 267.956 132.592C268.213 132.35 268.341 132.005 268.341 131.558C268.341 131.125 268.209 130.784 267.945 130.535C267.688 130.278 267.336 130.15 266.889 130.15C266.588 130.15 266.302 130.209 266.031 130.326C265.767 130.436 265.529 130.597 265.316 130.81H264.469V126.245H269.331V127.345H265.855V129.435C266.229 129.171 266.691 129.039 267.241 129.039Z" fill="white"/>
<path d="M62.7391 54.5599L64.7133 42.9754H67.8709L65.8954 54.5599H62.7391Z" fill="white"/>
<path d="M77.3472 43.2609C76.7216 43.0258 75.7413 42.7744 74.5171 42.7744C71.3973 42.7741 69.1994 44.3455 69.1808 46.5973C69.1633 48.2618 70.7498 49.1904 71.9475 49.7445C73.1766 50.3119 73.5897 50.6743 73.5838 51.1814C73.5761 51.9575 72.6024 52.3126 71.6948 52.3126C70.4311 52.3125 69.7596 52.1371 68.7227 51.7046L68.3158 51.5202L67.8727 54.1135C68.6103 54.437 69.9739 54.7172 71.3899 54.7318C74.709 54.7316 76.8636 53.1786 76.8881 50.7741C76.9001 49.4561 76.0588 48.4534 74.2372 47.6266C73.1336 47.0905 72.4576 46.7332 72.4648 46.1906C72.4648 45.7089 73.0369 45.1941 74.273 45.1941C75.3056 45.1777 76.0534 45.4032 76.6361 45.6379L76.9192 45.7713L77.3472 43.2609L77.3472 43.2609Z" fill="white"/>
<path d="M85.4442 42.9867H83.0042C82.2484 42.9867 81.6827 43.1935 81.3507 43.9479L76.6615 54.5637H79.977C79.977 54.5637 80.5192 53.1365 80.6419 52.8232C81.0043 52.8232 84.2251 52.8282 84.6856 52.8282C84.7802 53.2336 85.0698 54.564 85.0698 54.564L87.9998 54.5637L85.4442 42.9867L85.4442 42.9867ZM81.5505 50.4536C81.8117 49.786 82.8085 47.2155 82.8085 47.2155C82.79 47.2462 83.0677 46.5448 83.2272 46.1099L83.4409 47.1083C83.4409 47.1083 84.0452 49.8738 84.1716 50.4537L81.5505 50.4536V50.4536Z" fill="white"/>
<path d="M60.091 42.9843L56.9998 50.884L56.6703 49.2788C56.0949 47.428 54.3018 45.4233 52.2972 44.4195L55.1239 54.5503L58.4646 54.5463L63.4356 42.9843H60.091L60.091 42.9843Z" fill="white"/>
<path d="M54.1318 42.977H49.0403L49 43.2182C52.9611 44.1768 55.5821 46.4943 56.6701 49.2785L55.563 43.9551C55.3719 43.2216 54.8175 43.0028 54.1318 42.977L54.1318 42.977Z" fill="white"/>
<defs>
<filter id="filter0_dd" x="0" y="10" width="323" height="194" filterUnits="userSpaceOnUse" color-interpolation-filters="sRGB">
<feFlood flood-opacity="0" result="BackgroundImageFix"/>
<feColorMatrix in="SourceAlpha" type="matrix" values="0 0 0 0 0 0 0 0 0 0 0 0 0 0 0 0 0 0 127 0"/>
<feOffset dy="20"/>
<feGaussianBlur stdDeviation="15"/>
<feColorMatrix type="matrix" values="0 0 0 0 0 0 0 0 0 0 0 0 0 0 0 0 0 0 0.13 0"/>
<feBlend mode="normal" in2="BackgroundImageFix" result="effect1_dropShadow"/>
<feColorMatrix in="SourceAlpha" type="matrix" values="0 0 0 0 0 0 0 0 0 0 0 0 0 0 0 0 0 0 127 0"/>
<feOffset dy="14"/>
<feGaussianBlur stdDeviation="15"/>
<feColorMatrix type="matrix" values="0 0 0 0 0.545098 0 0 0 0 0.45098 0 0 0 0 0.290196 0 0 0 0.22 0"/>
<feBlend mode="normal" in2="effect1_dropShadow" result="effect2_dropShadow"/>
<feBlend mode="normal" in="SourceGraphic" in2="effect2_dropShadow" result="shape"/>
</filter>
<filter id="filter1_d" x="49.8243" y="77.924" width="216.523" height="13.144" filterUnits="userSpaceOnUse" color-interpolation-filters="sRGB">
<feFlood flood-opacity="0" result="BackgroundImageFix"/>
<feColorMatrix in="SourceAlpha" type="matrix" values="0 0 0 0 0 0 0 0 0 0 0 0 0 0 0 0 0 0 127 0"/>
<feOffset dy="2"/>
<feColorMatrix type="matrix" values="0 0 0 0 0 0 0 0 0 0 0 0 0 0 0 0 0 0 0.208022 0"/>
<feBlend mode="normal" in2="BackgroundImageFix" result="effect1_dropShadow"/>
<feBlend mode="normal" in="SourceGraphic" in2="effect1_dropShadow" result="shape"/>
</filter>
</defs>
</svg>
