<svg width="124" height="28" viewBox="0 0 124 28" fill="none" xmlns="http://www.w3.org/2000/svg">
<path d="M57.2675 21.5875L57.7353 18.5345H50.1925L58.4412 6.40516L58.3919 6.19004H46.0886L45.6208 9.25133H53.0077L44.8 21.3475L44.8492 21.5875H57.2675ZM70.7117 19.5521L68.6434 17.7236C68.2387 18.1387 67.7518 18.463 67.2144 18.6754C66.6769 18.8879 66.1011 18.9836 65.5244 18.9564C64.6875 18.9712 63.8779 18.6566 63.2673 18.0794C62.9374 17.7165 62.718 17.2656 62.6353 16.7804H71.1631V16.0441C71.2262 15.2183 71.1188 14.3882 70.8476 13.6064C70.5763 12.8246 70.1472 12.1079 69.5873 11.5018C69.0237 10.9471 68.3538 10.5143 67.6185 10.2297C66.8832 9.94519 66.098 9.81497 65.3111 9.84704C63.6887 9.83266 62.1259 10.4628 60.961 11.6011C60.4202 12.1606 59.9964 12.8239 59.7144 13.5515C59.4325 14.2791 59.2981 15.0563 59.3194 15.8372C59.2942 16.6198 59.4267 17.3994 59.7088 18.129C59.991 18.8585 60.4169 19.5228 60.961 20.0816C61.5587 20.6548 62.2633 21.1028 63.0339 21.3996C63.8046 21.6964 64.626 21.8362 65.4506 21.8108C66.4397 21.8586 67.4268 21.6803 68.3379 21.2891C69.249 20.898 70.0605 20.3042 70.7117 19.5521ZM63.3248 13.2475C63.5911 12.995 63.9046 12.7984 64.247 12.6692C64.5894 12.5399 64.9539 12.4806 65.3192 12.4946C65.6695 12.4818 66.0187 12.5404 66.3459 12.6669C66.6731 12.7934 66.9716 12.9853 67.2234 13.231C67.5868 13.6097 67.8174 14.0979 67.88 14.621H62.5943C62.698 14.1005 62.9521 13.6226 63.3248 13.2475ZM84.238 19.5521L82.1697 17.7236C81.7641 18.1398 81.2758 18.4647 80.7369 18.6772C80.198 18.8896 79.6206 18.9848 79.0426 18.9564C78.2057 18.9712 77.396 18.6566 76.7854 18.0794C76.4555 17.7165 76.2361 17.2656 76.1534 16.7804H84.6648V16.0441C84.73 15.2181 84.6235 14.3875 84.3521 13.6054C84.0808 12.8233 83.6506 12.1068 83.0889 11.5018C82.5254 10.9471 81.8555 10.5143 81.1202 10.2297C80.3849 9.94519 79.5997 9.81497 78.8127 9.84704C77.1927 9.83215 75.6323 10.4625 74.4709 11.6011C73.9278 12.159 73.5024 12.8219 73.2203 13.5499C72.9382 14.2779 72.8052 15.056 72.8293 15.8372C72.8007 16.6202 72.9316 17.4008 73.214 18.1308C73.4963 18.8608 73.9241 19.5248 74.4709 20.0816C75.0636 20.6495 75.7616 21.0938 76.525 21.3891C77.2884 21.6844 78.1021 21.8249 78.9194 21.8026C79.9106 21.8539 80.9005 21.6781 81.8146 21.2883C82.7287 20.8985 83.5432 20.3049 84.197 19.5521H84.238ZM76.8511 13.2475C77.1182 12.9962 77.4318 12.8003 77.774 12.6711C78.1162 12.5419 78.4803 12.482 78.8455 12.4946C79.1958 12.4813 79.5452 12.5397 79.8724 12.6662C80.1997 12.7928 80.4982 12.9849 80.7497 13.231C81.1156 13.609 81.349 14.097 81.4145 14.621H76.1206C76.2117 14.1082 76.445 13.632 76.7936 13.2475H76.8511ZM96.0735 21.5875H98.6179V5.03999H95.3348V11.2701C94.9137 10.8203 94.4044 10.4637 93.8392 10.223C93.274 9.98224 92.6653 9.86268 92.0517 9.87186C91.3054 9.84395 90.5613 9.9705 89.8654 10.2437C89.1694 10.5169 88.5364 10.931 88.0054 11.4604C86.8957 12.6548 86.2783 14.2298 86.2783 15.8662C86.2783 17.5025 86.8957 19.0776 88.0054 20.2719C88.5344 20.7954 89.1642 21.2041 89.8558 21.473C90.5475 21.742 91.2864 21.8654 92.0271 21.8357C92.7748 21.86 93.516 21.6893 94.1789 21.3399C94.8418 20.9906 95.404 20.4745 95.8109 19.8417L96.0735 21.5875ZM92.5524 18.7909C92.154 18.8122 91.7555 18.7514 91.3812 18.6124C91.0068 18.4733 90.6645 18.2589 90.3751 17.9821C90.0856 17.7054 89.8551 17.3721 89.6976 17.0026C89.5401 16.6332 89.4588 16.2352 89.4588 15.8331C89.4588 15.4309 89.5401 15.033 89.6976 14.6635C89.8551 14.294 90.0856 13.9608 90.3751 13.684C90.6645 13.4073 91.0068 13.1928 91.3812 13.0538C91.7555 12.9147 92.154 12.854 92.5524 12.8752C92.9508 12.854 93.3493 12.9147 93.7236 13.0538C94.098 13.1928 94.4403 13.4073 94.7298 13.684C95.0192 13.9608 95.2497 14.294 95.4073 14.6635C95.5648 15.033 95.646 15.4309 95.646 15.8331C95.646 16.2352 95.5648 16.6332 95.4073 17.0026C95.2497 17.3721 95.0192 17.7054 94.7298 17.9821C94.4403 18.2589 94.098 18.4733 93.7236 18.6124C93.3493 18.7514 92.9508 18.8122 92.5524 18.7909ZM109.255 21.5875H111.75V14.8113C111.767 14.1502 111.651 13.4925 111.408 12.878C111.166 12.2636 110.802 11.7053 110.339 11.237C109.238 10.2633 107.804 9.76154 106.341 9.83876C104.441 9.81082 102.591 10.4483 101.105 11.6424L102.722 13.9425C103.627 13.1213 104.788 12.6443 106.005 12.5939C106.706 12.5427 107.399 12.7715 107.934 13.231C108.172 13.4893 108.35 13.7978 108.455 14.1341C108.56 14.4704 108.589 14.8261 108.541 15.1753C107.584 14.8359 106.577 14.6598 105.562 14.6541C103.001 14.6541 100.957 15.9779 100.957 18.2118C100.957 20.4457 102.714 21.786 105.233 21.786C105.94 21.7941 106.642 21.6574 107.295 21.3844C107.948 21.1113 108.54 20.7075 109.033 20.1975L109.255 21.5875ZM104.224 18.0794C104.224 17.252 104.995 16.7721 106.169 16.7721C106.98 16.7809 107.783 16.935 108.541 17.2272V18.4352C107.802 18.9896 106.901 19.2807 105.98 19.2625C104.921 19.246 104.224 18.8158 104.224 18.0794ZM118.431 14.5465C117.446 14.3562 117.069 14.0997 117.069 13.5537C117.069 13.0076 117.725 12.5112 118.645 12.5112C119.799 12.5135 120.923 12.8779 121.862 13.5537L122.937 11.0715C121.587 10.2477 120.034 9.82068 118.456 9.83876C115.747 9.83876 113.892 11.3611 113.892 13.4875C113.892 15.6138 115.255 16.5405 117.233 16.8963L118.71 17.1858C119.465 17.3265 119.909 17.583 119.909 18.0877C119.909 18.7744 119.203 19.1715 118.169 19.1715C116.985 19.1531 115.831 18.8005 114.836 18.1539L113.613 20.6856C115.1 21.4396 116.742 21.8307 118.407 21.8274C121.222 21.8274 123.2 20.3133 123.2 18.1539C123.2 16.1682 121.862 15.2415 119.72 14.7947L118.431 14.5465Z" fill="#F9F9F9"/>
<path d="M30.7562 14.1365C31.2451 14.8837 32.0073 15.4094 32.8794 15.6007C33.7515 15.7921 34.6638 15.6338 35.4205 15.1599C36.1653 14.6711 36.6893 13.9103 36.8805 13.0401C37.0717 12.17 36.9149 11.2595 36.4438 10.5035C35.9549 9.75628 35.1926 9.23058 34.3205 9.03924C33.4485 8.8479 32.5362 9.00617 31.7795 9.48007C31.0347 9.96888 30.5107 10.7297 30.3195 11.5998C30.1283 12.47 30.285 13.3804 30.7562 14.1365Z" fill="#23B3E8"/>
<path d="M0.559138 16.246C1.08705 17.0542 1.91034 17.6236 2.85279 17.8325C3.79524 18.0413 4.782 17.873 5.60192 17.3635C6.41262 16.8355 6.98382 16.0105 7.19279 15.0658C7.40175 14.1212 7.2318 13.1322 6.71944 12.3115C6.18996 11.5023 5.36432 10.933 4.41976 10.7258C3.4752 10.5186 2.48704 10.69 1.66745 11.2032C0.860798 11.7326 0.293237 12.5565 0.0861289 13.4988C-0.12098 14.4412 0.0487889 15.4272 0.559138 16.246Z" fill="#F15832"/>
<path d="M30.5788 3.62184L22.7512 20.5022C22.619 20.7748 22.4381 21.0207 22.2173 21.2276C21.9935 21.4359 21.7312 21.5983 21.4452 21.7056C21.158 21.8068 20.854 21.8515 20.5499 21.8375C20.2453 21.8281 19.946 21.7551 19.671 21.6232L19.2604 21.4336C18.9846 21.3039 18.7364 21.122 18.5293 20.8978C18.3241 20.6729 18.1651 20.4096 18.0612 20.1231C17.9578 19.8353 17.9104 19.5303 17.9215 19.2246C17.9388 18.9201 18.0112 18.6213 18.1351 18.3427L26.1188 1.14089C26.2266 0.906039 26.3796 0.694894 26.569 0.519601C26.7585 0.344309 26.9805 0.208325 27.2225 0.119468C27.4645 0.0306122 27.7216 -0.00936303 27.979 0.00184326C28.2364 0.0130495 28.4891 0.0752172 28.7225 0.184767L29.4618 0.530946C29.7381 0.65938 29.9865 0.841436 30.1924 1.06662C30.3983 1.2918 30.5578 1.55567 30.6616 1.84299C30.7655 2.13031 30.8116 2.43542 30.7974 2.74072C30.7832 3.04602 30.7089 3.34548 30.5788 3.62184Z" fill="#4DBD98"/>
<path d="M21.0525 4.64165L11.2604 26.7149C11.1438 26.9771 10.9799 27.2131 10.7778 27.4098C10.5722 27.6093 10.3316 27.7648 10.0695 27.8677C9.80725 27.9647 9.52999 28.009 9.25216 27.9985C8.98311 27.9801 8.71942 27.9108 8.47377 27.7941L7.93669 27.5325C7.68669 27.407 7.46207 27.2322 7.27508 27.0174C7.08668 26.8036 6.94076 26.5525 6.84586 26.2788C6.75097 26.0051 6.709 25.7142 6.72241 25.4232C6.73468 25.1398 6.80084 24.8619 6.91701 24.6057L16.8414 2.18906C16.9376 1.96826 17.0747 1.76977 17.2447 1.60513C17.4146 1.44049 17.6141 1.313 17.8314 1.23008C18.0487 1.14715 18.2795 1.11045 18.5105 1.12211C18.7414 1.13376 18.9678 1.19354 19.1766 1.29796L20.0561 1.72307C20.5647 1.97168 20.9586 2.42211 21.1512 2.97546C21.3439 3.5288 21.3195 4.13982 21.0836 4.67435L21.0525 4.64165Z" fill="#F3E503"/>
</svg>
